<svg width="399" height="265" viewBox="0 0 399 265" fill="none" xmlns="http://www.w3.org/2000/svg">
<path d="M218.96 116.582L219.048 116.529C230.399 110.007 235.757 106.953 239.082 105.053C241.662 103.586 243.018 102.813 245.001 101.659C295.033 72.4456 383.657 8.53446 393.599 1.34485C393.931 1.10181 394.006 0.642238 393.772 0.306398C393.529 -0.0250222 393.069 -0.100145 392.734 0.142897C382.796 7.32367 294.224 71.2083 244.254 100.378C242.276 101.535 240.92 102.304 238.349 103.771C235.023 105.663 229.666 108.716 218.306 115.247L218.218 115.3C214.707 117.324 212.927 118.341 203.674 123.352C211.907 102.22 219.039 80.4704 224.865 58.6099C229.171 42.4587 232.859 25.9274 235.823 9.48012C235.898 9.07358 235.624 8.68913 235.222 8.61842C234.816 8.5433 234.436 8.81286 234.361 9.21056C231.406 25.6225 227.723 42.114 223.434 58.221C217.472 80.5941 210.144 102.843 201.66 124.439C193.599 128.796 180.588 135.796 158.253 147.811C153.986 146.445 145.718 144.735 136.205 147.634C126.824 150.488 120.959 156.401 118.3 159.68C118.114 159.901 118.079 160.219 118.211 160.48C118.344 160.74 118.613 160.904 118.914 160.886C124.479 160.581 130.035 159.759 135.419 158.447C146.341 155.787 154.243 151.651 158.262 149.485C164.759 154.258 169.997 160.064 173.844 166.759C175.646 169.896 178.543 174.934 180.023 180.789C179.051 183.038 177.792 186.41 176.98 190.652C176.083 195.341 175.469 202.442 176.829 202.804C177.92 203.092 180.076 199.008 181.18 195.844C183.317 189.707 182.399 184.055 181.573 180.842C181.904 179.835 182.271 178.783 182.664 177.669C186.078 167.983 188.626 162.088 188.648 162.031C192.716 152.685 196.916 141.911 201.156 129.993C204.319 137.51 208.78 144.174 214.446 149.843C219.883 155.283 227.338 162.742 238.142 163.944C249.077 165.151 257.663 159.128 268.546 151.5C277.953 144.903 286.296 136.688 293.337 127.081C293.58 126.754 293.509 126.29 293.182 126.052C292.851 125.809 292.391 125.879 292.144 126.206C285.197 135.681 276.973 143.776 267.694 150.281C256.656 158.018 248.675 163.617 238.301 162.468C228.019 161.328 220.78 154.086 215.497 148.8C209.583 142.883 205.021 135.849 201.907 127.899C202.225 127.099 202.53 126.29 202.848 125.491C213.474 119.746 215.25 118.721 218.964 116.586L218.96 116.582ZM135.07 157.011C130.326 158.16 125.468 158.929 120.579 159.295C123.498 156.065 128.789 151.439 136.633 149.052C140.295 147.939 143.762 147.541 146.867 147.541C150.696 147.541 153.978 148.155 156.389 148.809C152.158 151.05 144.831 154.633 135.074 157.015L135.07 157.011ZM200.414 127.625V127.638C200.414 127.638 200.406 127.647 200.406 127.651C195.954 140.276 191.537 151.637 187.284 161.43C187.262 161.487 184.691 167.426 181.255 177.174C181.122 177.559 180.99 177.939 180.862 178.31C179.241 173.189 176.75 168.845 175.12 166.012C171.282 159.34 166.101 153.52 159.702 148.712C180.226 137.674 192.769 130.921 200.83 126.569C200.688 126.918 200.556 127.271 200.414 127.62V127.625Z" fill="#CB997E"/>
<path d="M15.7047 81.6458H9.05318L0.586426 124.01H7.35718L12.3789 95.4506L17.3963 124.01H24.1758L15.7091 81.6458H15.7047Z" fill="#CB997E"/>
<path d="M105.982 81.6458H99.33L90.8633 124.01H97.634L102.656 95.4506L107.673 124.01H114.453L105.986 81.6458H105.982Z" fill="#CB997E"/>
<path d="M151.239 81.6458H144.587L136.121 124.01H142.891L147.913 95.4506L152.93 124.01H159.71L151.243 81.6458H151.239Z" fill="#CB997E"/>
<path d="M50.7422 124.006V81.6503H57.3937V117.351H68.2808V124.006H50.7422Z" fill="#CB997E"/>
<path d="M274.005 184.307H268.108L260.604 221.854H266.607L271.059 196.538L275.506 221.854H281.513L274.009 184.307H274.005Z" fill="#CB997E"/>
<path d="M234.573 184.307H240.469V221.854H234.573V205.549H228.566V221.854H222.67V184.307H228.566V199.645H234.573V184.307Z" fill="#CB997E"/>
<path d="M302.771 221.85V184.302H308.667V215.946H318.317V221.846H302.771V221.85Z" fill="#CB997E"/>
<path d="M357.802 190.206H348.152V199.645H354.799V205.544H348.152V215.951H357.802V221.85H342.255V184.302H357.802V190.202V190.206Z" fill="#CB997E"/>
<path d="M389.518 221.85H380.619V184.302H389.518C392.053 184.302 394.129 185.053 395.737 186.556C397.521 188.2 398.418 190.524 398.418 193.529V212.84C398.418 214.307 398.201 215.61 397.773 216.755C397.274 217.97 396.576 218.973 395.684 219.76C394.147 221.156 392.093 221.85 389.518 221.85ZM386.515 215.951H389.518C390.591 215.951 391.342 215.756 391.771 215.363C392.27 214.934 392.522 214.095 392.522 212.84V193.529C392.522 192.278 392.252 191.386 391.718 190.847C391.254 190.418 390.521 190.202 389.523 190.202H386.519V215.946L386.515 215.951Z" fill="#CB997E"/>
<path d="M398.418 239.044H0.586426V240.524H398.418V239.044Z" fill="#CB997E"/>
<path d="M2.31778 252.734V257.838H8.63361V252.734H10.387V264.528H8.63361V259.407H2.31778V264.528H0.582031V252.734H2.31778Z" fill="#CB997E"/>
<path d="M16.2305 264.528L20.5235 252.734H23.3855L27.5946 264.528H25.7749L24.7988 261.833H19.0395L18.0457 264.528H16.2261H16.2305ZM24.2821 260.246L21.9589 253.591L19.5827 260.246H24.2821Z" fill="#CB997E"/>
<path d="M36.5424 252.734L41.7452 263.384V252.734H43.4456V264.528H40.4158L35.1467 253.693V264.528H33.4463V252.734H36.5468H36.5424Z" fill="#CB997E"/>
<path d="M49.8101 264.546V252.716H53.869C55.565 252.716 56.9916 253.282 58.1576 254.418C59.3236 255.553 59.9021 256.954 59.9021 258.629V258.677C59.9021 260.33 59.3236 261.718 58.1664 262.849C57.0092 263.98 55.5782 264.541 53.8734 264.541H49.8145L49.8101 264.546ZM51.5635 262.911H53.869C55.1366 262.911 56.1745 262.504 56.9783 261.691C57.7821 260.878 58.1841 259.857 58.1841 258.633C58.1841 257.409 57.7821 256.362 56.9695 255.558C56.1568 254.753 55.1277 254.351 53.869 254.351H51.5635V262.911Z" fill="#CB997E"/>
<path d="M68.8416 252.734L72.3617 263.6L75.8818 252.734H78.8984V264.528H77.2157V253.878L73.7971 264.528H70.9352L67.5343 253.945V264.528H65.8516V252.734H68.8505H68.8416Z" fill="#CB997E"/>
<path d="M84.7593 264.528L89.0523 252.734H91.9143L96.1234 264.528H94.3037L93.3276 261.833H87.5683L86.5745 264.528H84.7549H84.7593ZM92.8109 260.246L90.4877 253.591L88.1115 260.246H92.8109Z" fill="#CB997E"/>
<path d="M101.834 264.546V252.716H105.893C107.589 252.716 109.015 253.282 110.181 254.418C111.347 255.553 111.926 256.954 111.926 258.629V258.677C111.926 260.33 111.347 261.718 110.19 262.849C109.033 263.98 107.602 264.541 105.897 264.541H101.838L101.834 264.546ZM103.587 262.911H105.893C107.16 262.911 108.198 262.504 109.002 261.691C109.806 260.878 110.208 259.857 110.208 258.633C110.208 257.409 109.806 256.362 108.993 255.558C108.185 254.753 107.152 254.351 105.893 254.351H103.587V262.911Z" fill="#CB997E"/>
<path d="M126.93 264.528V252.734H128.665V262.911H134.663V264.528H126.934H126.93Z" fill="#CB997E"/>
<path d="M148.96 252.734V254.351H142.375V257.838H148.284V259.42H142.375V262.906H148.96V264.524H140.639V252.73H148.96V252.734Z" fill="#CB997E"/>
<path d="M154.838 264.528L159.131 252.734H161.993L166.202 264.528H164.383L163.407 261.833H157.647L156.654 264.528H154.834H154.838ZM162.89 260.246L160.567 253.591L158.191 260.246H162.89Z" fill="#CB997E"/>
<path d="M170.213 252.734H179.66V254.351H175.871V264.528H174.135V254.351H170.213V252.734Z" fill="#CB997E"/>
<path d="M187.323 252.734V257.838H193.639V252.734H195.392V264.528H193.639V259.407H187.323V264.528H185.587V252.734H187.323Z" fill="#CB997E"/>
<path d="M210.06 252.734V254.351H203.475V257.838H209.385V259.42H203.475V262.906H210.06V264.524H201.739V252.73H210.06V252.734Z" fill="#CB997E"/>
<path d="M216.358 264.528V252.734H221.53C222.652 252.734 223.575 253.11 224.3 253.861C225.024 254.612 225.386 255.513 225.386 256.556C225.386 257.4 225.139 258.138 224.644 258.77C224.149 259.407 223.518 259.831 222.74 260.043L225.536 264.524H223.566L220.89 260.242H218.094V264.524H216.358V264.528ZM221.411 258.713C222.074 258.713 222.621 258.509 223.054 258.099C223.487 257.688 223.703 257.157 223.703 256.508C223.703 255.858 223.505 255.354 223.111 254.93C222.718 254.51 222.193 254.298 221.53 254.298H218.094V258.713H221.411Z" fill="#CB997E"/>
<path d="M240.036 264.528L244.329 252.734H247.191L251.4 264.528H249.581L248.604 261.833H242.845L241.851 264.528H240.032H240.036ZM248.088 260.246L245.765 253.591L243.388 260.246H248.088Z" fill="#CB997E"/>
<path d="M257.756 254.334C258.913 253.154 260.313 252.566 261.965 252.566C263.166 252.566 264.244 252.902 265.198 253.569C266.152 254.236 266.867 255.116 267.336 256.207L265.666 256.68C265.33 255.938 264.836 255.346 264.182 254.904C263.528 254.462 262.791 254.236 261.961 254.236H261.912C260.719 254.236 259.73 254.656 258.931 255.491C258.131 256.327 257.734 257.365 257.734 258.598C257.734 259.831 258.136 260.838 258.94 261.682C259.743 262.526 260.75 262.946 261.965 262.946C262.809 262.946 263.546 262.734 264.178 262.305C264.809 261.877 265.3 261.293 265.635 260.551L267.318 261.006C266.859 262.084 266.152 262.955 265.202 263.618C264.253 264.281 263.171 264.612 261.961 264.612C260.3 264.612 258.891 264.024 257.734 262.849C256.577 261.673 255.998 260.255 255.998 258.593C255.998 256.932 256.581 255.509 257.751 254.329L257.756 254.334Z" fill="#CB997E"/>
<path d="M274.53 254.334C275.687 253.154 277.088 252.566 278.739 252.566C279.941 252.566 281.018 252.902 281.972 253.569C282.926 254.236 283.642 255.116 284.11 256.207L282.441 256.68C282.105 255.938 281.61 255.346 280.957 254.904C280.303 254.462 279.565 254.236 278.735 254.236H278.686C277.494 254.236 276.505 254.656 275.705 255.491C274.906 256.327 274.508 257.365 274.508 258.598C274.508 259.831 274.91 260.838 275.714 261.682C276.518 262.526 277.525 262.946 278.739 262.946C279.583 262.946 280.321 262.734 280.952 262.305C281.584 261.877 282.074 261.293 282.41 260.551L284.092 261.006C283.633 262.084 282.926 262.955 281.977 263.618C281.027 264.281 279.945 264.612 278.735 264.612C277.074 264.612 275.665 264.024 274.508 262.849C273.351 261.673 272.772 260.255 272.772 258.593C272.772 256.932 273.355 255.509 274.526 254.329L274.53 254.334Z" fill="#CB997E"/>
<path d="M298.393 252.734V254.351H291.808V257.838H297.718V259.42H291.808V262.906H298.393V264.524H290.072V252.73H298.393V252.734Z" fill="#CB997E"/>
<path d="M305.734 253.512C306.609 252.906 307.646 252.601 308.848 252.601C310.442 252.601 311.864 253.057 313.11 253.967V255.805C312.492 255.332 311.807 254.952 311.056 254.661C310.305 254.369 309.568 254.223 308.852 254.223C308.137 254.223 307.501 254.378 306.957 254.687C306.414 254.996 306.14 255.421 306.14 255.96C306.14 256.15 306.176 256.322 306.251 256.472C306.326 256.623 306.454 256.764 306.648 256.883C306.838 257.007 307.006 257.109 307.152 257.188C307.298 257.268 307.549 257.356 307.903 257.458C308.256 257.559 308.521 257.63 308.693 257.679C308.865 257.727 309.179 257.798 309.63 257.9C311.043 258.236 312.045 258.7 312.628 259.283C313.211 259.866 313.503 260.555 313.503 261.355V261.386C313.503 262.442 313.075 263.255 312.222 263.821C311.37 264.391 310.363 264.674 309.206 264.674H309.073C307.342 264.665 305.84 264.073 304.559 262.906V261.068C306.008 262.381 307.545 263.039 309.175 263.039C309.903 263.039 310.522 262.898 311.03 262.61C311.538 262.323 311.789 261.912 311.789 261.373C311.789 260.891 311.538 260.48 311.03 260.149C310.522 259.818 309.66 259.508 308.437 259.212C307.055 258.898 306.043 258.483 305.398 257.975C304.754 257.462 304.431 256.791 304.431 255.96C304.431 254.948 304.868 254.135 305.743 253.516L305.734 253.512Z" fill="#CB997E"/>
<path d="M320.507 253.512C321.382 252.906 322.42 252.601 323.621 252.601C325.216 252.601 326.638 253.057 327.883 253.967V255.805C327.265 255.332 326.58 254.952 325.83 254.661C325.079 254.369 324.341 254.223 323.626 254.223C322.91 254.223 322.274 254.378 321.731 254.687C321.188 254.996 320.914 255.421 320.914 255.96C320.914 256.15 320.949 256.322 321.024 256.472C321.099 256.623 321.227 256.764 321.422 256.883C321.612 257.007 321.779 257.109 321.925 257.188C322.071 257.268 322.323 257.356 322.676 257.458C323.029 257.559 323.294 257.63 323.467 257.679C323.639 257.727 323.952 257.798 324.403 257.9C325.816 258.236 326.819 258.7 327.402 259.283C327.985 259.866 328.276 260.555 328.276 261.355V261.386C328.276 262.442 327.848 263.255 326.996 263.821C326.143 264.391 325.136 264.674 323.979 264.674H323.846C322.115 264.665 320.613 264.073 319.333 262.906V261.068C320.781 262.381 322.318 263.039 323.948 263.039C324.677 263.039 325.295 262.898 325.803 262.61C326.311 262.323 326.563 261.912 326.563 261.373C326.563 260.891 326.311 260.48 325.803 260.149C325.295 259.818 324.434 259.508 323.21 259.212C321.828 258.898 320.817 258.483 320.172 257.975C319.527 257.462 319.205 256.791 319.205 255.96C319.205 254.948 319.642 254.135 320.516 253.516L320.507 253.512Z" fill="#CB997E"/>
<path d="M335.445 254.369C336.602 253.202 338.011 252.615 339.672 252.615C341.332 252.615 342.71 253.202 343.872 254.378C345.033 255.553 345.621 256.976 345.63 258.651C345.63 260.312 345.047 261.731 343.885 262.906C342.723 264.082 341.315 264.665 339.667 264.665C338.02 264.665 336.598 264.077 335.44 262.906C334.283 261.731 333.705 260.312 333.705 258.651C333.705 256.989 334.283 255.549 335.44 254.369H335.445ZM335.445 258.651C335.445 259.866 335.847 260.896 336.659 261.753C337.472 262.61 338.475 263.034 339.676 263.034C340.877 263.034 341.88 262.606 342.684 261.753C343.488 260.9 343.889 259.866 343.889 258.651C343.889 257.436 343.488 256.384 342.675 255.527C341.862 254.669 340.868 254.236 339.676 254.236C338.483 254.236 337.472 254.665 336.659 255.527C335.851 256.388 335.445 257.427 335.445 258.651Z" fill="#CB997E"/>
<path d="M351.543 264.528V252.734H356.715C357.837 252.734 358.76 253.11 359.485 253.861C360.209 254.612 360.571 255.513 360.571 256.556C360.571 257.4 360.324 258.138 359.829 258.77C359.334 259.407 358.703 259.831 357.926 260.043L360.721 264.524H358.751L356.075 260.242H353.279V264.524H351.543V264.528ZM356.596 258.713C357.259 258.713 357.806 258.509 358.239 258.099C358.672 257.688 358.888 257.157 358.888 256.508C358.888 255.858 358.69 255.354 358.297 254.93C357.903 254.51 357.378 254.298 356.715 254.298H353.279V258.713H356.596Z" fill="#CB997E"/>
<path d="M366.772 264.528V252.734H368.526V264.528H366.772Z" fill="#CB997E"/>
<path d="M383.308 252.734V254.351H376.723V257.838H382.633V259.42H376.723V262.906H383.308V264.524H374.987V252.73H383.308V252.734Z" fill="#CB997E"/>
<path d="M390.653 253.512C391.528 252.906 392.565 252.601 393.767 252.601C395.361 252.601 396.783 253.057 398.029 253.967V255.805C397.411 255.332 396.726 254.952 395.975 254.661C395.224 254.369 394.487 254.223 393.771 254.223C393.056 254.223 392.42 254.378 391.876 254.687C391.333 254.996 391.059 255.421 391.059 255.96C391.059 256.15 391.095 256.322 391.17 256.472C391.245 256.623 391.373 256.764 391.567 256.883C391.757 257.007 391.925 257.109 392.071 257.188C392.217 257.268 392.468 257.356 392.822 257.458C393.175 257.559 393.44 257.63 393.612 257.679C393.784 257.727 394.098 257.798 394.549 257.9C395.962 258.236 396.964 258.7 397.547 259.283C398.13 259.866 398.422 260.555 398.422 261.355V261.386C398.422 262.442 397.994 263.255 397.141 263.821C396.289 264.391 395.282 264.674 394.125 264.674H393.992C392.261 264.665 390.759 264.073 389.478 262.906V261.068C390.927 262.381 392.464 263.039 394.094 263.039C394.822 263.039 395.441 262.898 395.949 262.61C396.457 262.323 396.708 261.912 396.708 261.373C396.708 260.891 396.457 260.48 395.949 260.149C395.441 259.818 394.579 259.508 393.356 259.212C391.974 258.898 390.962 258.483 390.317 257.975C389.673 257.462 389.35 256.791 389.35 255.96C389.35 254.948 389.787 254.135 390.662 253.516L390.653 253.512Z" fill="#CB997E"/>
</svg>
