<?xml version="1.0" encoding="UTF-8"?>
<svg id="Layer_1" data-name="Layer 1" xmlns="http://www.w3.org/2000/svg" viewBox="0 0 1080 651.74">
  <defs>
    <style>
      .cls-1 {
        fill: #fff;
      }
    </style>
  </defs>
  <path class="cls-1" d="m584.06,290.16l.2-.12c25.7-14.76,37.83-21.67,45.36-25.97,5.84-3.32,8.91-5.07,13.4-7.68,113.28-66.11,313.94-210.74,336.45-227.01.75-.55.92-1.59.39-2.35-.55-.75-1.59-.92-2.35-.37-22.5,16.25-223.04,160.82-336.18,226.83-4.48,2.62-7.55,4.36-13.37,7.68-7.53,4.28-19.66,11.19-45.38,25.97l-.2.12c-7.95,4.58-11.98,6.88-32.93,18.22,18.64-47.82,34.79-97.04,47.98-146.51,9.75-36.55,18.1-73.96,24.81-111.18.17-.92-.45-1.79-1.36-1.95-.92-.17-1.78.44-1.95,1.34-6.69,37.14-15.03,74.46-24.74,110.91-13.5,50.63-30.09,100.98-49.3,149.85-18.25,9.86-47.71,25.7-98.28,52.89-9.66-3.09-28.38-6.96-49.92-.4-21.24,6.46-34.52,19.84-40.54,27.26-.42.5-.5,1.22-.2,1.81.3.59.91.96,1.59.92,12.6-.69,25.18-2.55,37.37-5.52,24.73-6.02,42.62-15.38,51.72-20.28,14.71,10.8,26.57,23.94,35.28,39.09,4.08,7.1,10.64,18.5,13.99,31.75-2.2,5.09-5.05,12.72-6.89,22.32-2.03,10.61-3.42,26.68-.34,27.5,2.47.65,7.35-8.59,9.85-15.75,4.84-13.89,2.76-26.68.89-33.95.75-2.28,1.58-4.66,2.47-7.18,7.73-21.92,13.5-35.26,13.55-35.39,9.21-21.15,18.72-45.53,28.32-72.5,7.16,17.01,17.26,32.09,30.09,44.92,12.31,12.31,29.19,29.19,53.65,31.91,24.76,2.73,44.2-10.9,68.84-28.16,21.3-14.93,40.19-33.52,56.13-55.26.55-.74.39-1.79-.35-2.33-.75-.55-1.79-.39-2.35.35-15.73,21.44-34.35,39.76-55.36,54.48-24.99,17.51-43.06,30.18-66.55,27.58-23.28-2.58-39.67-18.97-51.63-30.93-13.39-13.39-23.72-29.31-30.77-47.3.72-1.81,1.41-3.64,2.13-5.45,24.06-13,28.08-15.32,36.49-20.15Zm-189.94,91.49c-10.74,2.6-21.74,4.34-32.81,5.17,6.61-7.31,18.59-17.78,36.35-23.18,8.29-2.52,16.14-3.42,23.17-3.42,8.67,0,16.1,1.39,21.56,2.87-9.58,5.07-26.17,13.18-48.26,18.57Zm147.95-66.5v.03s-.02.02-.02.03c-10.08,28.57-20.08,54.28-29.71,76.44-.05.13-5.87,13.57-13.65,35.63-.3.87-.6,1.73-.89,2.57-3.67-11.59-9.31-21.42-13-27.83-8.69-15.1-20.42-28.27-34.91-39.15,46.47-24.98,74.87-40.26,93.12-50.11-.32.79-.62,1.59-.94,2.38Z"/>
  <g>
    <path class="cls-1" d="m123.86,211.1h-15.06l-19.17,95.87h15.33l11.37-64.63,11.36,64.63h15.35l-19.17-95.87Z"/>
    <path class="cls-1" d="m328.26,211.1h-15.06l-19.17,95.87h15.33l11.37-64.63,11.36,64.63h15.35l-19.17-95.87Z"/>
    <path class="cls-1" d="m430.73,211.1h-15.06l-19.17,95.87h15.33l11.37-64.63,11.36,64.63h15.35l-19.17-95.87Z"/>
    <path class="cls-1" d="m203.19,306.96v-95.85h15.06v80.79h24.65v15.06h-39.71Z"/>
  </g>
  <g>
    <path class="cls-1" d="m708.69,443.42h-13.35l-16.99,84.97h13.59l10.08-57.29,10.07,57.29h13.6l-16.99-84.97Z"/>
    <path class="cls-1" d="m619.41,443.42h13.35v84.97h-13.35v-36.9h-13.6v36.9h-13.35v-84.97h13.35v34.71h13.6v-34.71Z"/>
    <path class="cls-1" d="m773.82,528.38v-84.97h13.35v71.61h21.85v13.35h-35.2Z"/>
    <path class="cls-1" d="m898.42,456.77h-21.85v21.36h15.05v13.35h-15.05v23.55h21.85v13.35h-35.2v-84.97h35.2v13.35Z"/>
    <path class="cls-1" d="m970.23,528.38h-20.15v-84.97h20.15c5.74,0,10.44,1.7,14.08,5.1,4.04,3.72,6.07,8.98,6.07,15.78v43.7c0,3.32-.49,6.27-1.46,8.86-1.13,2.75-2.71,5.02-4.73,6.8-3.48,3.16-8.13,4.73-13.96,4.73Zm-6.8-13.35h6.8c2.43,0,4.13-.44,5.1-1.33,1.13-.97,1.7-2.87,1.7-5.71v-43.7c0-2.83-.61-4.85-1.82-6.07-1.05-.97-2.71-1.46-4.97-1.46h-6.8v58.26Z"/>
  </g>
  <rect class="cls-1" x="89.63" y="567.29" width="900.75" height="3.35"/>
  <g>
    <path class="cls-1" d="m93.55,598.27v11.55h14.3v-11.55h3.97v26.69h-3.97v-11.59h-14.3v11.59h-3.93v-26.69h3.93Z"/>
    <path class="cls-1" d="m125.05,624.96l9.72-26.69h6.48l9.53,26.69h-4.12l-2.21-6.1h-13.04l-2.25,6.1h-4.12Zm18.23-9.69l-5.26-15.06-5.38,15.06h10.64Z"/>
    <path class="cls-1" d="m171.04,598.27l11.78,24.1v-24.1h3.85v26.69h-6.86l-11.93-24.52v24.52h-3.85v-26.69h7.02Z"/>
    <path class="cls-1" d="m201.08,625v-26.77h9.19c3.84,0,7.07,1.28,9.71,3.85s3.95,5.74,3.95,9.53v.11c0,3.74-1.31,6.88-3.93,9.44-2.62,2.56-5.86,3.83-9.72,3.83h-9.19Zm3.97-3.7h5.22c2.87,0,5.22-.92,7.04-2.76,1.82-1.84,2.73-4.15,2.73-6.92s-.91-5.14-2.75-6.96-4.17-2.73-7.02-2.73h-5.22v19.37Z"/>
    <path class="cls-1" d="m244.17,598.27l7.97,24.59,7.97-24.59h6.83v26.69h-3.81v-24.1l-7.74,24.1h-6.48l-7.7-23.95v23.95h-3.81v-26.69h6.79Z"/>
    <path class="cls-1" d="m280.21,624.96l9.72-26.69h6.48l9.53,26.69h-4.12l-2.21-6.1h-13.04l-2.25,6.1h-4.12Zm18.23-9.69l-5.26-15.06-5.38,15.06h10.64Z"/>
    <path class="cls-1" d="m318.87,625v-26.77h9.19c3.84,0,7.07,1.28,9.71,3.85s3.95,5.74,3.95,9.53v.11c0,3.74-1.31,6.88-3.93,9.44-2.62,2.56-5.86,3.83-9.72,3.83h-9.19Zm3.97-3.7h5.22c2.87,0,5.22-.92,7.04-2.76,1.82-1.84,2.73-4.15,2.73-6.92s-.91-5.14-2.75-6.96c-1.83-1.82-4.17-2.73-7.02-2.73h-5.22v19.37Z"/>
    <path class="cls-1" d="m375.69,624.96v-26.69h3.93v23.03h13.58v3.66h-17.5Z"/>
    <path class="cls-1" d="m425.57,598.27v3.66h-14.91v7.89h13.38v3.58h-13.38v7.89h14.91v3.66h-18.84v-26.69h18.84Z"/>
    <path class="cls-1" d="m438.88,624.96l9.72-26.69h6.48l9.53,26.69h-4.12l-2.21-6.1h-13.04l-2.25,6.1h-4.12Zm18.23-9.69l-5.26-15.06-5.38,15.06h10.64Z"/>
    <path class="cls-1" d="m473.69,598.27h21.39v3.66h-8.58v23.03h-3.93v-23.03h-8.88v-3.66Z"/>
    <path class="cls-1" d="m512.43,598.27v11.55h14.3v-11.55h3.97v26.69h-3.97v-11.59h-14.3v11.59h-3.93v-26.69h3.93Z"/>
    <path class="cls-1" d="m563.91,598.27v3.66h-14.91v7.89h13.38v3.58h-13.38v7.89h14.91v3.66h-18.84v-26.69h18.84Z"/>
    <path class="cls-1" d="m578.17,624.96v-26.69h11.71c2.54,0,4.63.85,6.27,2.55,1.64,1.7,2.46,3.74,2.46,6.1,0,1.91-.56,3.58-1.68,5.01-1.12,1.44-2.55,2.4-4.31,2.88l6.33,10.14h-4.46l-6.06-9.69h-6.33v9.69h-3.93Zm11.44-13.16c1.5,0,2.74-.46,3.72-1.39.98-.93,1.47-2.13,1.47-3.6s-.45-2.61-1.34-3.57c-.89-.95-2.08-1.43-3.58-1.43h-7.78v9.99h7.51Z"/>
    <path class="cls-1" d="m631.78,624.96l9.72-26.69h6.48l9.53,26.69h-4.12l-2.21-6.1h-13.04l-2.25,6.1h-4.12Zm18.23-9.69l-5.26-15.06-5.38,15.06h10.64Z"/>
    <path class="cls-1" d="m671.9,601.89c2.62-2.67,5.79-4,9.53-4,2.72,0,5.16.76,7.32,2.27,2.16,1.51,3.78,3.5,4.84,5.97l-3.78,1.07c-.76-1.68-1.88-3.02-3.36-4.02s-3.15-1.51-5.03-1.51h-.11c-2.7,0-4.94.95-6.75,2.84-1.81,1.89-2.71,4.24-2.71,7.03s.91,5.07,2.73,6.98c1.82,1.91,4.1,2.86,6.85,2.86,1.91,0,3.58-.48,5.01-1.45,1.43-.97,2.54-2.29,3.3-3.97l3.81,1.03c-1.04,2.44-2.64,4.41-4.79,5.91-2.15,1.5-4.6,2.25-7.34,2.25-3.76,0-6.95-1.33-9.57-3.99-2.62-2.66-3.93-5.87-3.93-9.63s1.32-6.98,3.97-9.65Z"/>
    <path class="cls-1" d="m709.88,601.89c2.62-2.67,5.79-4,9.53-4,2.72,0,5.16.76,7.32,2.27,2.16,1.51,3.78,3.5,4.84,5.97l-3.78,1.07c-.76-1.68-1.88-3.02-3.36-4.02s-3.15-1.51-5.03-1.51h-.11c-2.7,0-4.94.95-6.75,2.84-1.81,1.89-2.71,4.24-2.71,7.03s.91,5.07,2.73,6.98c1.82,1.91,4.1,2.86,6.85,2.86,1.91,0,3.58-.48,5.01-1.45,1.43-.97,2.54-2.29,3.3-3.97l3.81,1.03c-1.04,2.44-2.64,4.41-4.79,5.91-2.15,1.5-4.6,2.25-7.34,2.25-3.76,0-6.95-1.33-9.57-3.99-2.62-2.66-3.93-5.87-3.93-9.63s1.32-6.98,3.97-9.65Z"/>
    <path class="cls-1" d="m763.91,598.27v3.66h-14.91v7.89h13.38v3.58h-13.38v7.89h14.91v3.66h-18.84v-26.69h18.84Z"/>
    <path class="cls-1" d="m780.53,600.03c1.98-1.37,4.33-2.06,7.05-2.06,3.61,0,6.83,1.03,9.65,3.09v4.16c-1.4-1.07-2.95-1.93-4.65-2.59-1.7-.66-3.37-.99-4.99-.99s-3.06.35-4.29,1.05c-1.23.7-1.85,1.66-1.85,2.88,0,.43.08.82.25,1.16.17.34.46.66.9.93.43.28.81.51,1.14.69s.9.38,1.7.61,1.4.39,1.79.5,1.1.27,2.12.5c3.2.76,5.47,1.81,6.79,3.13s1.98,2.88,1.98,4.69v.07c0,2.39-.97,4.23-2.9,5.51-1.93,1.29-4.21,1.93-6.83,1.93h-.3c-3.92-.02-7.32-1.36-10.22-4v-4.16c3.28,2.97,6.76,4.46,10.45,4.46,1.65,0,3.05-.32,4.2-.97s1.72-1.58,1.72-2.8c0-1.09-.57-2.02-1.72-2.77s-3.1-1.45-5.87-2.12c-3.13-.71-5.42-1.65-6.88-2.8-1.46-1.16-2.19-2.68-2.19-4.56,0-2.29.99-4.13,2.97-5.53Z"/>
    <path class="cls-1" d="m813.98,600.03c1.98-1.37,4.33-2.06,7.05-2.06,3.61,0,6.83,1.03,9.65,3.09v4.16c-1.4-1.07-2.95-1.93-4.65-2.59-1.7-.66-3.37-.99-4.99-.99s-3.06.35-4.29,1.05c-1.23.7-1.85,1.66-1.85,2.88,0,.43.08.82.25,1.16.17.34.46.66.9.93.43.28.81.51,1.14.69s.9.38,1.7.61,1.4.39,1.79.5,1.1.27,2.12.5c3.2.76,5.47,1.81,6.79,3.13s1.98,2.88,1.98,4.69v.07c0,2.39-.97,4.23-2.9,5.51-1.93,1.29-4.21,1.93-6.83,1.93h-.3c-3.92-.02-7.32-1.36-10.22-4v-4.16c3.28,2.97,6.76,4.46,10.45,4.46,1.65,0,3.05-.32,4.2-.97s1.72-1.58,1.72-2.8c0-1.09-.57-2.02-1.72-2.77s-3.1-1.45-5.87-2.12c-3.13-.71-5.42-1.65-6.88-2.8-1.46-1.16-2.19-2.68-2.19-4.56,0-2.29.99-4.13,2.97-5.53Z"/>
    <path class="cls-1" d="m847.8,601.97c2.62-2.64,5.81-3.97,9.57-3.97s6.88,1.33,9.51,3.99c2.63,2.66,3.96,5.88,3.98,9.67,0,3.76-1.32,6.97-3.95,9.63-2.63,2.66-5.82,3.98-9.55,3.98s-6.95-1.33-9.57-3.98c-2.62-2.66-3.93-5.87-3.93-9.63s1.31-7.02,3.93-9.69Zm0,9.69c0,2.75.91,5.08,2.75,7.02s4.11,2.9,6.83,2.9,4.99-.97,6.81-2.9c1.82-1.93,2.73-4.27,2.73-7.02s-.91-5.13-2.75-7.07-4.09-2.92-6.79-2.92-4.99.97-6.83,2.92c-1.83,1.95-2.75,4.3-2.75,7.07Z"/>
    <path class="cls-1" d="m884.25,624.96v-26.69h11.71c2.54,0,4.63.85,6.27,2.55,1.64,1.7,2.46,3.74,2.46,6.1,0,1.91-.56,3.58-1.68,5.01-1.12,1.44-2.55,2.4-4.31,2.88l6.33,10.14h-4.46l-6.06-9.69h-6.33v9.69h-3.93Zm11.44-13.16c1.5,0,2.74-.46,3.72-1.39s1.47-2.13,1.47-3.6-.45-2.61-1.34-3.57c-.89-.95-2.08-1.43-3.58-1.43h-7.78v9.99h7.51Z"/>
    <path class="cls-1" d="m918.73,624.96v-26.69h3.97v26.69h-3.97Z"/>
    <path class="cls-1" d="m956.17,598.27v3.66h-14.91v7.89h13.38v3.58h-13.38v7.89h14.91v3.66h-18.84v-26.69h18.84Z"/>
    <path class="cls-1" d="m972.8,600.03c1.98-1.37,4.33-2.06,7.05-2.06,3.61,0,6.83,1.03,9.65,3.09v4.16c-1.4-1.07-2.95-1.93-4.65-2.59-1.7-.66-3.37-.99-4.99-.99s-3.06.35-4.29,1.05c-1.23.7-1.85,1.66-1.85,2.88,0,.43.08.82.25,1.16.17.34.46.66.9.93.43.28.81.51,1.14.69s.9.38,1.7.61,1.4.39,1.79.5,1.1.27,2.12.5c3.2.76,5.47,1.81,6.79,3.13s1.98,2.88,1.98,4.69v.07c0,2.39-.97,4.23-2.9,5.51-1.93,1.29-4.21,1.93-6.83,1.93h-.3c-3.92-.02-7.32-1.36-10.22-4v-4.16c3.28,2.97,6.76,4.46,10.45,4.46,1.65,0,3.05-.32,4.2-.97s1.72-1.58,1.72-2.8c0-1.09-.57-2.02-1.72-2.77s-3.1-1.45-5.87-2.12c-3.13-.71-5.42-1.65-6.88-2.8-1.46-1.16-2.19-2.68-2.19-4.56,0-2.29.99-4.13,2.97-5.53Z"/>
  </g>
</svg>