<svg width="477" height="288" viewBox="0 0 477 288" fill="none" xmlns="http://www.w3.org/2000/svg">
<path d="M257.96 128.22L258.048 128.167C269.399 121.645 274.757 118.591 278.082 116.691C280.662 115.224 282.018 114.451 284.001 113.297C334.033 84.0836 422.657 20.1725 432.599 12.9828C432.931 12.7398 433.006 12.2802 432.772 11.9444C432.529 11.613 432.069 11.5379 431.734 11.7809C421.796 18.9617 333.224 82.8463 283.254 112.016C281.276 113.173 279.92 113.942 277.349 115.409C274.023 117.301 268.666 120.354 257.306 126.885L257.218 126.938C253.707 128.962 251.927 129.979 242.674 134.99C250.907 113.858 258.039 92.1084 263.865 70.2479C268.171 54.0967 271.859 37.5654 274.823 21.1181C274.898 20.7116 274.624 20.3271 274.222 20.2564C273.816 20.1813 273.436 20.4509 273.361 20.8486C270.406 37.2605 266.723 53.752 262.434 69.859C256.472 92.2321 249.144 114.481 240.66 136.077C232.599 140.434 219.588 147.433 197.253 159.449C192.986 158.083 184.718 156.373 175.205 159.272C165.824 162.126 159.959 168.039 157.3 171.318C157.114 171.539 157.079 171.857 157.211 172.118C157.344 172.378 157.613 172.542 157.914 172.524C163.479 172.219 169.035 171.397 174.419 170.085C185.341 167.425 193.243 163.289 197.262 161.123C203.759 165.896 208.997 171.702 212.844 178.397C214.646 181.534 217.543 186.572 219.023 192.427C218.051 194.676 216.792 198.048 215.98 202.29C215.083 206.979 214.469 214.08 215.829 214.442C216.92 214.73 219.076 210.646 220.18 207.482C222.317 201.345 221.399 195.693 220.573 192.48C220.904 191.473 221.271 190.421 221.664 189.307C225.078 179.621 227.626 173.726 227.648 173.669C231.716 164.323 235.916 153.549 240.156 141.631C243.319 149.148 247.78 155.812 253.446 161.481C258.883 166.921 266.338 174.38 277.142 175.582C288.077 176.789 296.663 170.765 307.546 163.138C316.953 156.541 325.296 148.326 332.337 138.719C332.58 138.392 332.509 137.928 332.182 137.69C331.851 137.447 331.391 137.517 331.144 137.844C324.197 147.319 315.973 155.414 306.693 161.919C295.656 169.656 287.675 175.255 277.301 174.106C267.019 172.966 259.78 165.724 254.497 160.438C248.583 154.521 244.021 147.487 240.907 139.537C241.225 138.737 241.53 137.928 241.848 137.129C252.474 131.384 254.25 130.359 257.964 128.224L257.96 128.22ZM174.07 168.649C169.326 169.798 164.468 170.567 159.579 170.933C162.498 167.703 167.789 163.077 175.633 160.69C179.295 159.577 182.762 159.179 185.867 159.179C189.696 159.179 192.978 159.793 195.389 160.447C191.158 162.688 183.831 166.271 174.074 168.653L174.07 168.649ZM239.414 139.263V139.276C239.414 139.276 239.406 139.285 239.406 139.289C234.954 151.914 230.537 163.275 226.284 173.068C226.262 173.125 223.691 179.064 220.255 188.812C220.122 189.197 219.99 189.577 219.862 189.948C218.241 184.827 215.75 180.483 214.12 177.65C210.282 170.978 205.101 165.158 198.702 160.35C219.226 149.312 231.769 142.559 239.83 138.207C239.688 138.556 239.556 138.909 239.414 139.258V139.263Z" fill="black"/>
<path d="M54.7047 93.2838H48.0532L39.5864 135.648H46.3572L51.3789 107.089L56.3963 135.648H63.1758L54.7091 93.2838H54.7047Z" fill="black"/>
<path d="M144.982 93.2838H138.33L129.863 135.648H136.634L141.656 107.089L146.673 135.648H153.453L144.986 93.2838H144.982Z" fill="black"/>
<path d="M190.239 93.2838H183.587L175.121 135.648H181.891L186.913 107.089L191.93 135.648H198.71L190.243 93.2838H190.239Z" fill="black"/>
<path d="M89.7422 135.644V93.2882H96.3937V128.989H107.281V135.644H89.7422Z" fill="black"/>
<path d="M313.005 195.945H307.108L299.604 233.492H305.607L310.059 208.176L314.506 233.492H320.513L313.009 195.945H313.005Z" fill="black"/>
<path d="M273.573 195.945H279.469V233.492H273.573V217.187H267.566V233.492H261.67V195.945H267.566V211.283H273.573V195.945Z" fill="black"/>
<path d="M341.771 233.488V195.94H347.667V227.584H357.317V233.484H341.771V233.488Z" fill="black"/>
<path d="M396.802 201.844H387.152V211.283H393.799V217.182H387.152V227.589H396.802V233.488H381.255V195.94H396.802V201.84V201.844Z" fill="black"/>
<path d="M428.518 233.488H419.619V195.94H428.518C431.053 195.94 433.129 196.691 434.737 198.194C436.521 199.838 437.418 202.162 437.418 205.167V224.478C437.418 225.945 437.201 227.248 436.773 228.393C436.274 229.608 435.576 230.611 434.684 231.398C433.147 232.794 431.093 233.488 428.518 233.488ZM425.515 227.589H428.518C429.591 227.589 430.342 227.394 430.771 227.001C431.27 226.572 431.522 225.733 431.522 224.478V205.167C431.522 203.916 431.252 203.024 430.718 202.485C430.254 202.056 429.521 201.84 428.523 201.84H425.519V227.584L425.515 227.589Z" fill="black"/>
<path d="M437.418 250.682H39.5864V252.162H437.418V250.682Z" fill="black"/>
<path d="M41.3178 264.372V269.476H47.6336V264.372H49.387V276.166H47.6336V271.045H41.3178V276.166H39.582V264.372H41.3178Z" fill="black"/>
<path d="M55.2305 276.166L59.5235 264.372H62.3855L66.5946 276.166H64.7749L63.7988 273.471H58.0395L57.0457 276.166H55.2261H55.2305ZM63.2821 271.884L60.9589 265.229L58.5827 271.884H63.2821Z" fill="black"/>
<path d="M75.5424 264.372L80.7452 275.022V264.372H82.4456V276.166H79.4158L74.1467 265.331V276.166H72.4463V264.372H75.5468H75.5424Z" fill="black"/>
<path d="M88.8101 276.184V264.354H92.869C94.565 264.354 95.9916 264.92 97.1576 266.056C98.3236 267.191 98.9021 268.592 98.9021 270.267V270.315C98.9021 271.968 98.3236 273.356 97.1664 274.487C96.0092 275.618 94.5782 276.179 92.8734 276.179H88.8145L88.8101 276.184ZM90.5635 274.549H92.869C94.1366 274.549 95.1745 274.142 95.9783 273.329C96.7821 272.516 97.1841 271.495 97.1841 270.271C97.1841 269.047 96.7821 268 95.9695 267.196C95.1568 266.391 94.1277 265.989 92.869 265.989H90.5635V274.549Z" fill="black"/>
<path d="M107.842 264.372L111.362 275.238L114.882 264.372H117.898V276.166H116.216V265.516L112.797 276.166H109.935L106.534 265.583V276.166H104.852V264.372H107.85H107.842Z" fill="black"/>
<path d="M123.759 276.166L128.052 264.372H130.914L135.123 276.166H133.304L132.328 273.471H126.568L125.575 276.166H123.755H123.759ZM131.811 271.884L129.488 265.229L127.112 271.884H131.811Z" fill="black"/>
<path d="M140.834 276.184V264.354H144.893C146.589 264.354 148.015 264.92 149.181 266.056C150.347 267.191 150.926 268.592 150.926 270.267V270.315C150.926 271.968 150.347 273.356 149.19 274.487C148.033 275.618 146.602 276.179 144.897 276.179H140.838L140.834 276.184ZM142.587 274.549H144.893C146.16 274.549 147.198 274.142 148.002 273.329C148.806 272.516 149.208 271.495 149.208 270.271C149.208 269.047 148.806 268 147.993 267.196C147.185 266.391 146.152 265.989 144.893 265.989H142.587V274.549Z" fill="black"/>
<path d="M165.93 276.166V264.372H167.665V274.549H173.663V276.166H165.934H165.93Z" fill="black"/>
<path d="M187.96 264.372V265.989H181.375V269.476H187.284V271.058H181.375V274.544H187.96V276.162H179.639V264.368H187.96V264.372Z" fill="black"/>
<path d="M193.838 276.166L198.131 264.372H200.993L205.202 276.166H203.383L202.407 273.471H196.647L195.654 276.166H193.834H193.838ZM201.89 271.884L199.567 265.229L197.191 271.884H201.89Z" fill="black"/>
<path d="M209.213 264.372H218.66V265.989H214.871V276.166H213.135V265.989H209.213V264.372Z" fill="black"/>
<path d="M226.323 264.372V269.476H232.639V264.372H234.392V276.166H232.639V271.045H226.323V276.166H224.587V264.372H226.323Z" fill="black"/>
<path d="M249.06 264.372V265.989H242.475V269.476H248.385V271.058H242.475V274.544H249.06V276.162H240.739V264.368H249.06V264.372Z" fill="black"/>
<path d="M255.358 276.166V264.372H260.53C261.652 264.372 262.575 264.748 263.3 265.499C264.024 266.25 264.386 267.151 264.386 268.194C264.386 269.038 264.139 269.776 263.644 270.408C263.149 271.045 262.518 271.469 261.74 271.681L264.536 276.162H262.566L259.89 271.88H257.094V276.162H255.358V276.166ZM260.411 270.351C261.074 270.351 261.621 270.147 262.054 269.737C262.487 269.326 262.703 268.795 262.703 268.146C262.703 267.496 262.505 266.992 262.111 266.568C261.718 266.148 261.193 265.936 260.53 265.936H257.094V270.351H260.411Z" fill="black"/>
<path d="M279.036 276.166L283.329 264.372H286.191L290.4 276.166H288.581L287.604 273.471H281.845L280.851 276.166H279.032H279.036ZM287.088 271.884L284.765 265.229L282.388 271.884H287.088Z" fill="black"/>
<path d="M296.756 265.972C297.913 264.792 299.313 264.204 300.965 264.204C302.166 264.204 303.244 264.54 304.198 265.207C305.152 265.874 305.867 266.754 306.336 267.845L304.666 268.318C304.33 267.576 303.836 266.984 303.182 266.542C302.528 266.1 301.791 265.874 300.961 265.874H300.912C299.719 265.874 298.73 266.294 297.931 267.129C297.131 267.965 296.734 269.003 296.734 270.236C296.734 271.469 297.136 272.476 297.94 273.32C298.743 274.164 299.75 274.584 300.965 274.584C301.809 274.584 302.546 274.372 303.178 273.943C303.809 273.515 304.3 272.931 304.635 272.189L306.318 272.644C305.859 273.722 305.152 274.593 304.202 275.256C303.253 275.919 302.171 276.25 300.961 276.25C299.3 276.25 297.891 275.662 296.734 274.487C295.577 273.311 294.998 271.893 294.998 270.231C294.998 268.57 295.581 267.147 296.751 265.967L296.756 265.972Z" fill="black"/>
<path d="M313.53 265.972C314.687 264.792 316.088 264.204 317.739 264.204C318.941 264.204 320.018 264.54 320.972 265.207C321.926 265.874 322.642 266.754 323.11 267.845L321.441 268.318C321.105 267.576 320.61 266.984 319.957 266.542C319.303 266.1 318.565 265.874 317.735 265.874H317.686C316.494 265.874 315.505 266.294 314.705 267.129C313.906 267.965 313.508 269.003 313.508 270.236C313.508 271.469 313.91 272.476 314.714 273.32C315.518 274.164 316.525 274.584 317.739 274.584C318.583 274.584 319.321 274.372 319.952 273.943C320.584 273.515 321.074 272.931 321.41 272.189L323.092 272.644C322.633 273.722 321.926 274.593 320.977 275.256C320.027 275.919 318.945 276.25 317.735 276.25C316.074 276.25 314.665 275.662 313.508 274.487C312.351 273.311 311.772 271.893 311.772 270.231C311.772 268.57 312.355 267.147 313.526 265.967L313.53 265.972Z" fill="black"/>
<path d="M337.393 264.372V265.989H330.808V269.476H336.718V271.058H330.808V274.544H337.393V276.162H329.072V264.368H337.393V264.372Z" fill="black"/>
<path d="M344.734 265.15C345.609 264.544 346.646 264.239 347.848 264.239C349.442 264.239 350.864 264.695 352.11 265.605V267.443C351.492 266.97 350.807 266.59 350.056 266.299C349.305 266.007 348.568 265.861 347.852 265.861C347.137 265.861 346.501 266.016 345.957 266.325C345.414 266.634 345.14 267.059 345.14 267.598C345.14 267.788 345.176 267.96 345.251 268.11C345.326 268.261 345.454 268.402 345.648 268.521C345.838 268.645 346.006 268.747 346.152 268.826C346.298 268.906 346.549 268.994 346.903 269.096C347.256 269.197 347.521 269.268 347.693 269.317C347.865 269.365 348.179 269.436 348.63 269.538C350.043 269.874 351.045 270.338 351.628 270.921C352.211 271.504 352.503 272.193 352.503 272.993V273.024C352.503 274.08 352.075 274.893 351.222 275.459C350.37 276.029 349.363 276.312 348.206 276.312H348.073C346.342 276.303 344.84 275.711 343.559 274.544V272.706C345.008 274.018 346.545 274.677 348.175 274.677C348.903 274.677 349.522 274.535 350.03 274.248C350.538 273.961 350.789 273.55 350.789 273.011C350.789 272.529 350.538 272.118 350.03 271.787C349.522 271.455 348.66 271.146 347.437 270.85C346.055 270.536 345.043 270.121 344.398 269.613C343.754 269.1 343.431 268.429 343.431 267.598C343.431 266.586 343.868 265.773 344.743 265.154L344.734 265.15Z" fill="black"/>
<path d="M359.507 265.15C360.382 264.544 361.42 264.239 362.621 264.239C364.216 264.239 365.638 264.695 366.883 265.605V267.443C366.265 266.97 365.58 266.59 364.83 266.299C364.079 266.007 363.341 265.861 362.626 265.861C361.91 265.861 361.274 266.016 360.731 266.325C360.188 266.634 359.914 267.059 359.914 267.598C359.914 267.788 359.949 267.96 360.024 268.11C360.099 268.261 360.227 268.402 360.422 268.521C360.612 268.645 360.779 268.747 360.925 268.826C361.071 268.906 361.323 268.994 361.676 269.096C362.029 269.197 362.294 269.268 362.467 269.317C362.639 269.365 362.952 269.436 363.403 269.538C364.816 269.874 365.819 270.338 366.402 270.921C366.985 271.504 367.276 272.193 367.276 272.993V273.024C367.276 274.08 366.848 274.893 365.996 275.459C365.143 276.029 364.136 276.312 362.979 276.312H362.846C361.115 276.303 359.613 275.711 358.333 274.544V272.706C359.781 274.018 361.318 274.677 362.948 274.677C363.677 274.677 364.295 274.535 364.803 274.248C365.311 273.961 365.563 273.55 365.563 273.011C365.563 272.529 365.311 272.118 364.803 271.787C364.295 271.455 363.434 271.146 362.21 270.85C360.828 270.536 359.817 270.121 359.172 269.613C358.527 269.1 358.205 268.429 358.205 267.598C358.205 266.586 358.642 265.773 359.516 265.154L359.507 265.15Z" fill="black"/>
<path d="M374.445 266.007C375.602 264.84 377.011 264.253 378.672 264.253C380.332 264.253 381.71 264.84 382.872 266.016C384.033 267.191 384.621 268.614 384.63 270.289C384.63 271.95 384.047 273.369 382.885 274.544C381.723 275.72 380.315 276.303 378.667 276.303C377.02 276.303 375.598 275.715 374.44 274.544C373.283 273.369 372.705 271.95 372.705 270.289C372.705 268.627 373.283 267.187 374.44 266.007H374.445ZM374.445 270.289C374.445 271.504 374.847 272.534 375.659 273.391C376.472 274.248 377.475 274.672 378.676 274.672C379.877 274.672 380.88 274.244 381.684 273.391C382.488 272.538 382.889 271.504 382.889 270.289C382.889 269.074 382.488 268.022 381.675 267.165C380.862 266.307 379.868 265.874 378.676 265.874C377.483 265.874 376.472 266.303 375.659 267.165C374.851 268.026 374.445 269.065 374.445 270.289Z" fill="black"/>
<path d="M390.543 276.166V264.372H395.715C396.837 264.372 397.76 264.748 398.485 265.499C399.209 266.25 399.571 267.151 399.571 268.194C399.571 269.038 399.324 269.776 398.829 270.408C398.334 271.045 397.703 271.469 396.926 271.681L399.721 276.162H397.751L395.075 271.88H392.279V276.162H390.543V276.166ZM395.596 270.351C396.259 270.351 396.806 270.147 397.239 269.737C397.672 269.326 397.888 268.795 397.888 268.146C397.888 267.496 397.69 266.992 397.297 266.568C396.903 266.148 396.378 265.936 395.715 265.936H392.279V270.351H395.596Z" fill="black"/>
<path d="M405.772 276.166V264.372H407.526V276.166H405.772Z" fill="black"/>
<path d="M422.308 264.372V265.989H415.723V269.476H421.633V271.058H415.723V274.544H422.308V276.162H413.987V264.368H422.308V264.372Z" fill="black"/>
<path d="M429.653 265.15C430.528 264.544 431.565 264.239 432.767 264.239C434.361 264.239 435.783 264.695 437.029 265.605V267.443C436.411 266.97 435.726 266.59 434.975 266.299C434.224 266.007 433.487 265.861 432.771 265.861C432.056 265.861 431.42 266.016 430.876 266.325C430.333 266.634 430.059 267.059 430.059 267.598C430.059 267.788 430.095 267.96 430.17 268.11C430.245 268.261 430.373 268.402 430.567 268.521C430.757 268.645 430.925 268.747 431.071 268.826C431.217 268.906 431.468 268.994 431.822 269.096C432.175 269.197 432.44 269.268 432.612 269.317C432.784 269.365 433.098 269.436 433.549 269.538C434.962 269.874 435.964 270.338 436.547 270.921C437.13 271.504 437.422 272.193 437.422 272.993V273.024C437.422 274.08 436.994 274.893 436.141 275.459C435.289 276.029 434.282 276.312 433.125 276.312H432.992C431.261 276.303 429.759 275.711 428.478 274.544V272.706C429.927 274.018 431.464 274.677 433.094 274.677C433.822 274.677 434.441 274.535 434.949 274.248C435.457 273.961 435.708 273.55 435.708 273.011C435.708 272.529 435.457 272.118 434.949 271.787C434.441 271.455 433.579 271.146 432.356 270.85C430.974 270.536 429.962 270.121 429.317 269.613C428.673 269.1 428.35 268.429 428.35 267.598C428.35 266.586 428.787 265.773 429.662 265.154L429.653 265.15Z" fill="black"/>
</svg>
